<?xml version="1.0" encoding="utf-8"?>
<!-- Generator: Adobe Illustrator 22.1.0, SVG Export Plug-In . SVG Version: 6.00 Build 0)  -->
<svg version="1.1" id="Layer_1" xmlns="http://www.w3.org/2000/svg" xmlns:xlink="http://www.w3.org/1999/xlink" x="0px" y="0px"
	 viewBox="0 0 13 137" style="enable-background:new 0 0 13 137;" xml:space="preserve">
<style type="text/css">
	.st0{fill:#E2E2E2;}
	.st1{fill:#FE8A8E;}
	.st2{fill:#FEC500;}
	.st3{fill:#FE9C00;}
	.st4{fill:#777777;}
	.st5{fill:#FEDC6A;}
	.st6{fill:#040404;}
	.st7{fill:#DDDDDD;}
</style>
<g>
	
		<rect x="3.8" y="5.4" transform="matrix(-1.836970e-16 1 -1 -1.836970e-16 17.2258 4.2545)" class="st0" width="5.4" height="10.6"/>
	<path class="st1" d="M7.7,1.6C8,1.7,8.3,1.7,8.6,1.7c0.9,0.1,1.8,0.3,2.6,0.8c0.5,0.3,0.7,0.7,0.7,1.3c0,1,0,2,0,3.1
		c0,0.4,0,0.8,0,1.2c0,0.2-0.1,0.3-0.3,0.3c-2.2,0-4.5,0-6.7,0.1c-1.1,0-2.3,0-3.4,0c-0.2,0-0.3,0-0.3-0.3c0-1.4,0-2.8,0-4.3
		c0-0.2,0-0.3,0-0.5c0-0.3,0.2-0.5,0.5-0.7c0.6-0.4,1.3-0.6,2-0.8c0.6-0.1,1.2-0.2,1.8-0.3c0,0,0.1,0,0.1,0C6.3,1.6,7,1.6,7.7,1.6z"
		/>
	<path class="st2" d="M0.9,126.6c0-0.1,0-0.2,0-0.3c0-3.2,0-96.6,0.1-99.9c0-1.7,0-3.4,0-5c0-2.6,0.1-5.1,0.1-7.7
		c0-0.2,0.1-0.3,0.3-0.3c1.6,0,3.2,0,4.8,0c0.1,0,0.1,0,0.2,0c0,1.4,0,2.8,0,4.2c-0.1,1.7,0,3.5,0,5.2c-0.1,1.7,0,3.5,0,5.2
		c-0.1,1.7,0,54.7,0,56.4c0,0.9,0,40.9,0,41.8c0,0.1,0,0.2,0,0.2c-0.1,0.1-0.1,0-0.1,0c-0.2-0.2-0.4-0.4-0.6-0.5
		c-0.6-0.6-1.2-1.2-1.9-1.8c-0.1-0.1-0.1-0.1-0.2,0C2.6,125,1.8,125.8,0.9,126.6z"/>
	<path class="st3" d="M6.3,126.5c-0.1-0.1,0-0.1,0-0.2c0-0.9,0-40.9,0-41.8c0.1-1.7,0-54.7,0-56.4c0.1-1.7,0-3.5,0-5.2
		c0.1-1.7,0-3.5,0-5.2c0.1-1.4,0-2.8,0-4.2c0.4,0,0.8,0,1.2,0c1.3,0,2.6,0,3.9,0c0.2,0,0.3,0,0.2,0.2c0,2.8-0.1,5.6-0.1,8.3
		c0,4.7-0.1,99.7-0.1,104.4c0,0.1,0,0.2-0.1,0.2c0,0,0-0.1-0.1-0.1c-0.8-0.8-1.6-1.5-2.4-2.3c-0.1-0.1-0.1-0.1-0.2,0
		c-0.3,0.3-0.6,0.5-0.9,0.8C7.4,125.5,6.9,126,6.3,126.5z"/>
	
		<rect x="6.3" y="4.1" transform="matrix(-1.836970e-16 1 -1 -1.836970e-16 15.9298 2.909)" class="st4" width="0.4" height="10.6"/>
	
		<rect x="6.3" y="5.2" transform="matrix(-1.836970e-16 1 -1 -1.836970e-16 16.9669 3.9955)" class="st4" width="0.4" height="10.6"/>
	
		<rect x="6.3" y="6.2" transform="matrix(-1.836970e-16 1 -1 -1.836970e-16 18.078 5.0573)" class="st4" width="0.4" height="10.6"/>
	
		<rect x="6.3" y="7.3" transform="matrix(-1.836970e-16 1 -1 -1.836970e-16 19.1151 6.0943)" class="st4" width="0.4" height="10.6"/>
	<g>
		<path class="st5" d="M6.3,126.5c0.6-0.5,1.1-1,1.7-1.6c0.3-0.3,0.6-0.5,0.9-0.8c0.1-0.1,0.1-0.1,0.2,0c0.8,0.8,1.6,1.5,2.4,2.3
			c0,0,0,0.1,0.1,0.1c-0.2,0.4-0.4,0.8-0.6,1.2c-0.9,1.6-1.7,3.1-2.6,4.7c-0.7,0-1.4,0-2.1,0c-0.5,0-0.9,0-1.4,0c-0.2,0-0.5,0-0.7,0
			c-0.3-0.6-0.6-1.2-1-1.7c-0.7-1.3-1.5-2.7-2.2-4c0,0,0-0.1,0-0.1c0.9-0.8,1.7-1.6,2.6-2.4c0.1-0.1,0.2-0.1,0.2,0
			c0.6,0.6,1.2,1.2,1.9,1.8c0.2,0.2,0.4,0.4,0.6,0.5C6.2,126.5,6.3,126.5,6.3,126.5z"/>
		<path class="st6" d="M6.2,132.4c0.7,0,1.4,0,2.1,0c-0.7,1.3-1.4,2.5-2.1,3.8C6.2,134.9,6.2,133.6,6.2,132.4z"/>
		<polygon class="st6" points="4.1,132.4 6.2,136.1 4.8,132.4 		"/>
		<polygon class="st7" points="6.2,132.3 4.8,132.3 6.2,136.1 		"/>
	</g>
</g>
</svg>
