<?xml version="1.0" encoding="utf-8"?>
<!-- Generator: Adobe Illustrator 22.1.0, SVG Export Plug-In . SVG Version: 6.00 Build 0)  -->
<svg version="1.1" id="Layer_1" xmlns="http://www.w3.org/2000/svg" xmlns:xlink="http://www.w3.org/1999/xlink" x="0px" y="0px"
	 viewBox="0 0 131 278" style="enable-background:new 0 0 131 278;" xml:space="preserve">
<style type="text/css">
	.st0{fill:#E5A164;}
	.st1{fill:#010101;}
</style>
<g>
	<path class="st0" d="M74.6,276.3c-6.2,0-12.5,0-18.7,0c0-0.9,0-1.7,0-2.6c0-81.3,0-162.6,0-243.9c0-2.8,0-2.8-2.9-2.6
		c0-0.1-0.1-0.2-0.1-0.3c0-7.3,0-14.6,0-21.8c0-1.2,0.4-1.4,1.5-1.4c5.6,0.1,11.2,0,16.8,0c2.1,0,4.2-0.2,6.2,0.1
		c-0.3,0.3-0.3,0.7-0.3,1.2c0,7,0,13.9,0,20.9c0,0.5-0.1,0.9,0.5,1.1c0,0,0,0,0,0c0,0.1,0,0.1,0,0.2c0,0-0.1,0.1-0.1,0.1
		c-3,0-3,0-3,3c0,81.4,0,162.9,0,244.3C74.6,275.1,74.6,275.7,74.6,276.3z M67.3,267.3c0-1.3-1.1-2.3-2.3-2.3
		c-1.2,0-2.2,1.1-2.2,2.3c0,1.3,1,2.3,2.3,2.3C66.3,269.6,67.3,268.6,67.3,267.3z"/>
	<path class="st1" d="M1.1,26.8c0-2.1,0.1-4.3,0-6.4c-0.1-3.1,1.4-5.1,4-6.4c2.6-1.3,5.4-1.7,8.2-2.1c7.2-1.1,14.5-2,21.7-3.4
		c3.3-0.6,6.3-1.9,8.8-4.2c2-1.9,4.3-3.2,7.1-3.7c9.5,0,19,0,28.5,0c3,0.5,5.4,2.1,7.5,4.1c2,1.9,4.5,3,7.1,3.6
		c7.6,1.7,15.4,2.4,23,3.7c4.5,0.7,9.1,1.2,11.9,5.5c0,3.2,0,6.3,0,9.5c-9.4,0-18.9,0-28.3,0c-0.6,0-1.1,0-1.7,0.1
		c-0.6,0-1.1-0.1-1.7-0.1c-6.6,0-13.2,0-19.9,0c0,0,0,0,0,0c0-7.2,0-14.4-0.1-21.5c0-0.5,0.2-1.1-0.2-1.6c-2.1-0.3-4.2-0.1-6.2-0.1
		c-5.6,0-11.2,0-16.8,0c-1.1,0-1.5,0.2-1.5,1.4c0.1,7.3,0,14.6,0,21.8c-0.2,0-0.4,0.1-0.6,0.1c-17,0-33.9,0-50.9,0l0,0
		C1.3,26.9,1.2,26.8,1.1,26.8z"/>
</g>
</svg>
