<?xml version="1.0" encoding="utf-8"?>
<!-- Generator: Adobe Illustrator 22.1.0, SVG Export Plug-In . SVG Version: 6.00 Build 0)  -->
<svg version="1.1" id="diagram-puzzle" xmlns="http://www.w3.org/2000/svg" xmlns:xlink="http://www.w3.org/1999/xlink" x="0px"
	 y="0px" viewBox="0 0 498 112" style="enable-background:new 0 0 498 112;" xml:space="preserve">
<style type="text/css">
	.st0{fill:#E0E0E0;}
	.st1{fill:#F8F8F8;}
	.st2{fill:#444444;}
	.st3{fill:#586E81;}
	.st4{fill:#86D6C8;}
	.st5{fill:#4AACE8;}
	.st6{fill:#FFFFFF;}
</style>
<g>
	<path class="st0" d="M412.9,109h-212c-1.6,0-3-1.4-3-3V20c0-1.6,1.4-3,3-3h212c1.6,0,3,1.4,3,3v86C415.9,107.6,414.5,109,412.9,109
		z"/>
	<g>
		<path class="st1" d="M299.7,89.4c10.6,0,21.2,0,31.9,0c1.8,0,2.3,0.5,2.2,2.3c-0.1,2.9-0.1,5.8,0,8.8c0.1,1.9-0.6,2.4-2.4,2.3
			c-16.3-0.1-32.5,0-48.8,0c-4.8,0-9.7-0.1-14.5,0c-1.7,0-2.2-0.5-2.1-2.2c0.1-3,0.1-6.1,0-9.2c-0.1-1.6,0.5-2,2.1-2
			C278.6,89.4,289.1,89.4,299.7,89.4z"/>
		<path class="st1" d="M393.1,86.9c-4.2,0-8.5,0-12.7,0c-1.4,0-1.9-0.4-1.9-1.8c0.1-2.7,0.1-5.3,0-8c0-1.3,0.3-1.8,1.7-1.8
			c8.6,0,17.1,0,25.7,0c1.3,0,1.8,0.3,1.8,1.7c-0.1,2.7-0.1,5.4,0,8.2c0,1.4-0.6,1.7-1.8,1.7C401.6,86.8,397.4,86.8,393.1,86.9z"/>
		<path class="st1" d="M217.1,72.8c-3.1,0-6.1,0-9.2,0c-1.3,0-1.8-0.4-1.8-1.7c0.1-2.7,0.1-5.4,0-8.2c0-1.2,0.5-1.6,1.7-1.6
			c6.2,0,12.3,0,18.5,0c1.3,0,1.8,0.4,1.8,1.7c-0.1,2.7-0.1,5.4,0,8.2c0,1.2-0.5,1.6-1.7,1.6C223.3,72.8,220.2,72.8,217.1,72.8z"/>
		<path class="st1" d="M399.4,59c-3.3-0.7-3.3-0.7-3.3-4c0-2,0.1-4,0-6c-0.1-1.4,0.5-1.9,1.9-1.8c2.6,0.1,5.3,0.1,7.9,0
			c1.3,0,1.7,0.5,1.7,1.8c0,7.4,0,14.7,0,22.1c0,1.3-0.5,1.7-1.7,1.8c-6.5,0.3-6.5,0.3-6.5-6.1C399.4,64.1,399.4,61.5,399.4,59z"/>
		<path class="st1" d="M398.2,44.7c-2.5,0-5,0-7.6,0c-1.2,0-1.6-0.4-1.6-1.6c0.1-2.7,0-5.4,0-8.2c0-1.1,0.3-1.7,1.6-1.7
			c5.2,0,10.4,0,15.5,0c1.1,0,1.5,0.4,1.5,1.5c0,2.8,0,5.6,0,8.4c0,1.2-0.5,1.6-1.7,1.6C403.4,44.6,400.8,44.7,398.2,44.7z"/>
		<path class="st1" d="M215.5,58.7c-2.5,0-5,0-7.6,0c-1.3,0-1.8-0.5-1.8-1.7c0-2.7,0-5.4,0-8.2c0-1.2,0.5-1.6,1.7-1.6
			c5.1,0,10.2,0,15.3,0c1.2,0,1.7,0.4,1.6,1.6c-0.1,2.8,0,5.6,0,8.4c0,1.1-0.4,1.5-1.5,1.5C220.7,58.7,218.1,58.7,215.5,58.7z"/>
		<path class="st1" d="M343.7,102.7c-1.9,0-3.8,0-5.8,0c-1.2,0-1.7-0.4-1.6-1.6c0.1-3.4,0.1-6.8,0-10.1c0-1.3,0.5-1.6,1.7-1.6
			c3.9,0,7.8,0,11.7,0c1.3,0,1.8,0.4,1.7,1.7c-0.1,3.3-0.1,6.6,0,9.9c0,1.4-0.6,1.7-1.8,1.7C347.7,102.6,345.7,102.7,343.7,102.7z"
			/>
		<path class="st1" d="M248.3,102.7c0-4.2,0-8.1,0.1-12c0-0.4,0.9-1.2,1.3-1.2c4.1-0.1,8.2-0.1,12.3,0c0.5,0,1.3,0.9,1.3,1.4
			c0.1,3.5,0.1,7,0,10.5c0,0.4-0.7,1.2-1.1,1.2C257.7,102.7,253.2,102.7,248.3,102.7z"/>
		<path class="st1" d="M206.2,75.4c4.9,0,9.4,0,14,0.1c0.4,0,1,0.8,1,1.3c0.1,2.9,0.1,5.8,0,8.7c0,0.5-0.9,1.3-1.4,1.3
			c-4,0.1-8.1,0.1-12.1,0c-0.5,0-1.4-0.6-1.4-0.9C206.1,82.5,206.2,79,206.2,75.4z"/>
		<path class="st1" d="M234.3,95.9c0-1.5,0.1-3.1,0-4.6c-0.1-1.4,0.3-2.1,1.9-2c2.6,0.1,5.2,0.1,7.8,0c1.3,0,1.9,0.4,1.9,1.8
			c-0.1,3.2-0.1,6.5,0,9.7c0,1.3-0.4,1.8-1.7,1.8c-2.7-0.1-5.4-0.1-8.2,0c-1.4,0-1.7-0.6-1.6-1.8C234.4,99.2,234.3,97.6,234.3,95.9z
			"/>
		<path class="st1" d="M217.7,96.1c0,1.6-0.1,3.2,0,4.8c0.1,1.4-0.5,1.8-1.9,1.8c-2.6-0.1-5.2-0.1-7.8,0c-1.3,0-1.9-0.3-1.9-1.8
			c0.1-3.2,0-6.4,0-9.5c0-1.4,0.4-2.1,1.9-2c2.6,0.1,5.2,0.1,7.8,0c1.5-0.1,2,0.6,1.9,2C217.6,92.9,217.7,94.5,217.7,96.1z"/>
		<path class="st1" d="M365.5,96.1c0,1.7-0.1,3.3,0,5c0,1.2-0.5,1.6-1.6,1.6c-2.7,0-5.4,0-8.2,0c-1.3,0-1.8-0.4-1.8-1.7
			c0.1-3.3,0-6.5,0-9.8c0-1.2,0.3-1.9,1.7-1.8c2.8,0.1,5.6,0.1,8.4,0c1.1,0,1.5,0.5,1.5,1.5C365.5,92.7,365.5,94.4,365.5,96.1z"/>
		<path class="st1" d="M220.3,102.6c0-4.2,0-8.2,0.1-12.1c0-0.4,0.8-1,1.2-1.1c2.9-0.1,5.8-0.1,8.7,0c0.5,0,1.3,0.9,1.3,1.4
			c0.1,3.4,0.1,6.9,0,10.3c0,0.5-0.6,1.4-0.9,1.4C227.3,102.7,223.9,102.6,220.3,102.6z"/>
		<path class="st1" d="M366.5,44.7c-1.3,0-2.7-0.1-4,0c-1.2,0.1-1.7-0.5-1.6-1.6c0-2.8-0.1-5.6,0.1-8.4c0-0.5,0.8-1.4,1.3-1.4
			c2.9-0.1,5.8-0.1,8.8,0c0.5,0,1.3,0.9,1.3,1.4c0.1,2.9,0.1,5.7,0.1,8.6c0,1.1-0.5,1.5-1.6,1.5C369.4,44.6,367.9,44.7,366.5,44.7z"
			/>
		<path class="st1" d="M250.4,72.8c-5.7,0-5.7,0-5.7-5.7c0-5.7,0-5.8,5.7-5.7c1.8,0,4.5-0.5,5.3,0.4c1,1.1,0.5,3.6,0.5,5.5
			c0,5.5,0,5.5-5.4,5.5C250.7,72.8,250.5,72.8,250.4,72.8z"/>
		<path class="st1" d="M375.9,81.3c0,1.3,0,2.7,0,4c0.1,1.2-0.4,1.7-1.6,1.6c-2.8-0.1-5.6,0-8.3,0c-1.1,0-1.6-0.4-1.5-1.5
			c0-2.8-0.1-5.7,0.1-8.5c0-0.5,0.9-1.3,1.4-1.3c2.9-0.1,5.8-0.1,8.7,0c0.4,0,1.2,0.8,1.2,1.2C376,78.2,375.9,79.7,375.9,81.3z"/>
		<path class="st1" d="M271.6,86.9c-5.6,0-5.7,0-5.6-5.6c0-1.9-0.5-4.4,0.5-5.5c0.9-1,3.5-0.4,5.3-0.4c5.6,0,5.6,0,5.6,5.7
			c0,5.7,0,5.7-5.7,5.7C271.7,86.9,271.7,86.9,271.6,86.9z"/>
		<path class="st1" d="M359.7,58.7c-5.7,0-5.7,0-5.7-5.7c0-1.4,0-2.8,0-4.2c-0.1-1.2,0.4-1.7,1.6-1.7c2.8,0,5.6,0,8.4,0
			c1.2,0,1.6,0.5,1.6,1.7c-0.1,2.7-0.1,5.4,0,8.2c0,1.4-0.6,1.7-1.8,1.7C362.3,58.7,361,58.7,359.7,58.7z"/>
		<path class="st1" d="M280,81c0.1-1.8-0.4-4.3,0.5-5.1c1.1-1,3.5-0.4,5.3-0.5c1.3,0,2.5,0.1,3.8,0c1.4-0.1,2.1,0.3,2,1.9
			c-0.1,2.6-0.1,5.2,0,7.7c0,1.3-0.3,1.9-1.8,1.9c-2.6-0.1-5.3-0.1-7.9,0c-1.4,0-1.9-0.6-1.8-1.9c0.1-1.3,0-2.6,0-4
			C280,81,280,81,280,81z"/>
		<path class="st1" d="M313.8,86.9c-5.7,0-5.7,0-5.7-5.7c0-1.8-0.4-4.2,0.5-5.3c0.8-0.9,3.3-0.4,5.1-0.4c1.8,0,4.5-0.6,5.3,0.4
			c1,1.1,0.5,3.6,0.5,5.5c0.1,1.3,0,2.7,0,4c0.1,1.2-0.5,1.6-1.7,1.6C316.6,86.8,315.2,86.9,313.8,86.9z"/>
		<path class="st1" d="M267,53c0,5.7,0,5.7-5.7,5.7c-1.5,0-2.9,0.1-4.4-0.1c-0.5-0.1-1.3-0.9-1.4-1.4c-0.1-2.9-0.1-5.8,0-8.8
			c0-0.5,0.8-1.2,1.3-1.3c2.9-0.1,5.8-0.1,8.8,0c0.5,0,1.3,0.8,1.4,1.4C267.1,50.1,267,51.6,267,53z"/>
		<path class="st1" d="M302.1,39.1c0,1.4,0.1,2.8-0.1,4.2c-0.1,0.5-0.8,1.3-1.3,1.4c-2.8,0.1-5.7,0-8.6,0.1c-1.1,0-1.6-0.4-1.5-1.5
			c0-2.9-0.1-5.7,0.1-8.6c0-0.5,0.8-1.3,1.3-1.4c2.9-0.1,5.8,0,8.8-0.1c1.1,0,1.4,0.5,1.3,1.5C302,36.2,302.1,37.6,302.1,39.1z"/>
		<path class="st1" d="M217.7,39.1c0,1.4,0.1,2.8-0.1,4.2c-0.1,0.5-0.9,1.3-1.3,1.4c-2.8,0.1-5.7,0-8.6,0.1c-1.1,0-1.6-0.4-1.6-1.5
			c0-2.9,0-5.7,0.1-8.5c0-0.5,0.8-1.3,1.3-1.4c2.8-0.1,5.7,0,8.6-0.1c1.1,0,1.6,0.4,1.5,1.5C217.6,36.2,217.7,37.6,217.7,39.1z"/>
		<path class="st1" d="M305.7,81.2c-0.1,1.8,0.4,4.3-0.5,5.1c-1.1,1-3.5,0.5-5.3,0.5c-1.5,0.1-2.9,0.1-4.4-0.1
			c-0.5-0.1-1.3-0.9-1.3-1.4c-0.1-2.8,0-5.7-0.1-8.6c0-1.1,0.4-1.5,1.5-1.5c2.9,0,5.7,0,8.6,0.1c0.5,0,1.3,0.8,1.3,1.4
			c0.2,1.4,0.1,2.9,0.1,4.4C305.7,81.2,305.7,81.2,305.7,81.2z"/>
		<path class="st1" d="M245.9,39c-0.1,1.8,0.4,4.3-0.5,5.1c-1.1,1-3.5,0.5-5.3,0.5c-1.4,0.1-2.8,0-4.2,0c-1,0-1.6-0.2-1.6-1.4
			c0.1-2.9-0.1-5.7,0.1-8.6c0-0.5,0.8-1.4,1.3-1.4c2.9-0.1,5.8-0.1,8.7,0c0.5,0,1.3,0.8,1.3,1.4c0.2,1.4,0.1,2.9,0.1,4.4
			C245.8,39,245.9,39,245.9,39z"/>
		<path class="st1" d="M251.9,81c0-1.4,0-2.8,0-4.2c0-1,0.4-1.4,1.4-1.4c2.9,0,5.8,0,8.8,0.1c0.4,0,1.2,0.8,1.2,1.2
			c0.1,2.9,0.1,5.8,0,8.7c0,0.5-0.9,1.3-1.4,1.3c-2.9,0.1-5.8,0.1-8.7,0c-0.4,0-1.2-0.8-1.2-1.3C251.8,84,251.9,82.5,251.9,81z"/>
		<path class="st1" d="M237.8,81c0.1-1.8-0.4-4.3,0.5-5.1c1.1-1,3.5-0.4,5.3-0.5c1.4-0.1,2.8,0,4.2,0c1.2-0.1,1.6,0.5,1.6,1.6
			c0,2.7,0,5.4,0,8.2c0,1.1-0.3,1.7-1.6,1.7c-2.8-0.1-5.6-0.1-8.4,0c-1.2,0-1.6-0.5-1.6-1.7c0.1-1.4,0-2.8,0-4.2
			C237.9,81,237.8,81,237.8,81z"/>
		<path class="st1" d="M342.1,86.8c-1.5,0-2.9,0.1-4.4-0.1c-0.5-0.1-1.3-0.9-1.3-1.3c-0.1-2.9-0.1-5.8,0-8.8c0-0.4,0.8-1.2,1.2-1.2
			c2.9-0.1,5.8-0.1,8.8,0c0.5,0,1.3,0.8,1.4,1.3c0.1,2.8,0,5.7,0.1,8.6c0,1.1-0.4,1.6-1.5,1.5C344.9,86.8,343.5,86.8,342.1,86.8z"/>
		<path class="st1" d="M259.8,38.9c0,1.5,0,2.9,0,4.4c0,1-0.4,1.4-1.4,1.4c-2.9,0-5.8,0-8.8-0.1c-0.4,0-1.2-0.8-1.2-1.3
			c-0.1-2.9-0.1-5.8,0-8.7c0-0.5,0.9-1.3,1.4-1.3c2.9-0.1,5.8-0.1,8.7,0c0.4,0,1.2,0.8,1.2,1.3C259.9,36,259.8,37.5,259.8,38.9z"/>
		<path class="st1" d="M391.2,61.3c5.7,0,5.7,0,5.7,5.7c0,1.4-0.1,2.8,0,4.2c0.1,1.2-0.5,1.6-1.7,1.6c-2.8,0-5.6,0-8.4,0
			c-1.1,0-1.5-0.4-1.5-1.5c0-2.8,0.1-5.6,0-8.4c0-1.2,0.5-1.7,1.6-1.6C388.4,61.4,389.8,61.3,391.2,61.3z"/>
		<path class="st1" d="M350.4,81c0-1.4-0.1-2.8,0.1-4.2c0.1-0.5,0.9-1.3,1.4-1.3c2.9-0.1,5.7,0,8.6-0.1c1.1,0,1.6,0.4,1.5,1.5
			c0,2.9,0,5.7-0.1,8.6c0,0.5-0.9,1.3-1.3,1.4c-2.9,0.1-5.7,0-8.6,0.1c-1.1,0-1.6-0.4-1.5-1.5C350.4,83.9,350.4,82.4,350.4,81z"/>
		<path class="st1" d="M343.2,66.8c0-5.5,0-5.5,5.5-5.5c1.5,0,2.9,0,4.4,0c1.2,0,1.7,0.4,1.7,1.6c-0.1,2.8-0.1,5.6,0,8.4
			c0,1.1-0.4,1.5-1.5,1.5c-2.8,0-5.6-0.1-8.4,0c-1.4,0-1.7-0.6-1.7-1.8C343.2,69.6,343.2,68.2,343.2,66.8z"/>
		<path class="st1" d="M282.1,44.8c-5.6-0.1-5.6-0.1-5.6-5.7c0-1.9-0.5-4.4,0.5-5.5c0.9-1,3.5-0.4,5.3-0.4c5.6,0,5.7,0,5.6,5.5
			c0,1.9,0.5,4.4-0.5,5.5C286.6,45.2,284,44.7,282.1,44.8z"/>
		<path class="st1" d="M309.2,53c0,5.7,0,5.7-5.7,5.7c-1.5,0-2.9,0.1-4.4-0.1c-0.5-0.1-1.3-0.9-1.3-1.4c-0.1-2.8-0.1-5.7-0.1-8.6
			c0-1,0.3-1.5,1.3-1.5c2.9,0,5.8-0.1,8.8,0.1c0.5,0,1.3,0.8,1.4,1.4C309.3,50.1,309.2,51.6,309.2,53z"/>
		<path class="st1" d="M323.2,47.3c0,3.6,0,6.9-0.1,10.2c0,0.4-0.8,1.2-1.3,1.2c-2.9,0.1-5.8,0.1-8.7,0c-0.5,0-1.3-0.9-1.3-1.4
			c-0.1-2.8-0.1-5.7,0-8.6c0-0.5,0.6-1.4,1-1.4C316.1,47.2,319.6,47.3,323.2,47.3z"/>
		<path class="st1" d="M380.6,44.9c-1.8-0.2-4.2,0.3-5.3-0.7c-0.9-0.9-0.3-3.4-0.4-5.1c0-1.4,0-2.8,0-4.2c0-1,0.3-1.6,1.4-1.6
			c2.8,0,5.7,0,8.5,0c1.1,0,1.5,0.5,1.5,1.6c0,2.8,0,5.6,0,8.3c0,1.2-0.5,1.6-1.7,1.6c-1.4-0.1-2.8,0-4.2,0
			C380.6,44.7,380.6,44.8,380.6,44.9z"/>
		<path class="st1" d="M358.3,38.9c0,1.5,0.1,2.9-0.1,4.4c-0.1,0.5-0.9,1.3-1.4,1.3c-2.8,0.1-5.7,0-8.5,0.1c-1.1,0-1.5-0.5-1.5-1.5
			c0-2.8-0.1-5.7,0.1-8.5c0-0.5,0.9-1.3,1.4-1.3c2.8-0.1,5.7,0,8.5-0.1c1.1,0,1.5,0.5,1.5,1.5C358.3,36.1,358.3,37.5,358.3,38.9z"/>
		<path class="st1" d="M344.3,39.1c0,1.3,0,2.7,0,4c0.1,1.2-0.4,1.7-1.6,1.7c-2.8-0.1-5.6-0.1-8.4,0c-1.3,0-1.6-0.6-1.6-1.7
			c0.1-2.7,0.1-5.4,0-8.2c0-1.4,0.6-1.7,1.8-1.7c2.7,0.1,5.3,0.1,8,0c1.3,0,1.8,0.4,1.8,1.7C344.2,36.3,344.3,37.7,344.3,39.1z"/>
		<path class="st1" d="M310.3,44.7c-5.7,0-5.7,0-5.7-5.7c0-1.5-0.1-2.9,0.1-4.4c0.1-0.5,0.9-1.3,1.4-1.4c2.9-0.1,5.8-0.1,8.7,0
			c0.5,0,1.2,0.8,1.3,1.3c0.1,2.9,0.1,5.8,0,8.7c0,0.5-0.8,1.3-1.4,1.3C313.2,44.8,311.8,44.7,310.3,44.7z"/>
		<path class="st1" d="M230.7,67c0-5.7,0-5.7,5.7-5.7c1.4,0,2.8,0,4.2,0c1,0,1.6,0.3,1.6,1.5c0,2.8,0.1,5.7-0.1,8.5
			c0,0.5-0.8,1.4-1.3,1.4c-2.9,0.1-5.8,0.1-8.7,0.1c-1,0-1.4-0.5-1.4-1.4C230.8,69.9,230.7,68.4,230.7,67z"/>
		<path class="st1" d="M324.6,33.2c1.4,0,2.8-0.1,4.2,0.1c0.5,0.1,1.3,0.9,1.4,1.3c0.1,2.8,0.1,5.7,0.1,8.5c0,1.1-0.4,1.6-1.5,1.5
			c-2.8-0.1-5.7,0-8.5-0.1c-0.5,0-1.3-0.9-1.4-1.3c-0.1-2.8,0-5.7-0.1-8.5c0-1.1,0.4-1.6,1.5-1.5C321.7,33.3,323.1,33.2,324.6,33.2z
			"/>
		<path class="st1" d="M377,73c-1.8-0.2-4.2,0.3-5.3-0.7c-0.9-0.9-0.3-3.4-0.4-5.1c0-1.4,0-2.8,0-4.2c0-1,0.2-1.6,1.4-1.6
			c2.8,0,5.7,0,8.5,0c1.1,0,1.5,0.5,1.5,1.5c0,2.8,0,5.6,0,8.3c0,1.2-0.5,1.6-1.7,1.6c-1.4-0.1-2.8,0-4.2,0
			C377,72.8,377,72.9,377,73z"/>
		<path class="st1" d="M329.2,66.9c0-1.3,0-2.7,0-4c0-1,0.3-1.6,1.4-1.6c2.8,0,5.7,0,8.5,0c1.1,0,1.5,0.4,1.5,1.5c0,2.8,0,5.6,0,8.3
			c0,1.1-0.3,1.6-1.5,1.6c-2.8,0-5.7,0-8.5,0c-1.1,0-1.5-0.4-1.5-1.5C329.2,69.8,329.2,68.3,329.2,66.9z"/>
		<path class="st1" d="M268.1,44.7c-5.7,0-5.7,0-5.7-5.7c0-1.5-0.1-2.9,0.1-4.4c0.1-0.5,0.9-1.3,1.4-1.4c2.9-0.1,5.8-0.1,8.7,0
			c0.5,0,1.3,0.8,1.3,1.3c0.1,2.9,0.1,5.8,0,8.7c0,0.5-0.8,1.3-1.4,1.3C271.1,44.8,269.6,44.7,268.1,44.7z"/>
		<path class="st1" d="M312.5,67c0,1.3-0.1,2.7,0,4c0.1,1.2-0.3,1.8-1.7,1.8c-2.7-0.1-5.4-0.1-8.2,0c-1.3,0-1.8-0.4-1.7-1.7
			c0.1-2.6,0.1-5.3,0-8c0-1.2,0.3-1.8,1.7-1.8c2.8,0.1,5.6,0,8.4,0c1.1,0,1.6,0.4,1.5,1.5C312.5,64.2,312.5,65.6,312.5,67z"/>
		<path class="st1" d="M252.9,53c0,1.2-0.1,2.4,0,3.6c0.1,1.6-0.4,2.3-2.1,2.2c-2.5-0.1-5-0.1-7.6,0c-1.3,0-1.9-0.3-1.9-1.8
			c0.1-2.6,0.1-5.3,0-8c0-1.2,0.3-1.8,1.7-1.8c2.7,0.1,5.4,0.1,8.2,0c1.3,0,1.8,0.5,1.7,1.8C252.9,50.3,252.9,51.6,252.9,53z"/>
		<path class="st1" d="M339.9,47.3c3.6,0,7,0,10.5,0.1c0.3,0,0.9,0.9,0.9,1.4c0.1,2.8,0,5.7,0.1,8.5c0,1.1-0.5,1.5-1.6,1.5
			c-2.8,0-5.6,0-8.3-0.1c-0.5,0-1.5-0.6-1.5-1C339.9,54.3,339.9,50.9,339.9,47.3z"/>
		<path class="st1" d="M275.2,58.7c-5.7,0-5.7,0-5.7-5.7c0-1.3,0.1-2.7,0-4c-0.1-1.2,0.3-1.8,1.7-1.8c2.7,0.1,5.4,0,8.2,0
			c1.1,0,1.7,0.3,1.7,1.6c-0.1,2.8-0.1,5.6,0,8.4c0,1.2-0.5,1.6-1.7,1.6C278,58.7,276.6,58.7,275.2,58.7z"/>
		<path class="st1" d="M220.3,38.8c0-1.3,0-2.7,0-4c0-1.2,0.4-1.7,1.6-1.6c2.7,0.1,5.4,0.1,8.2,0c1.3,0,1.8,0.4,1.8,1.7
			c-0.1,2.7,0,5.4,0,8.2c0,1.2-0.4,1.7-1.6,1.6c-2.8-0.1-5.6,0-8.4,0c-1.1,0-1.6-0.4-1.5-1.5C220.3,41.7,220.3,40.3,220.3,38.8z"/>
		<path class="st1" d="M298.5,67.1c0,5.7,0,5.7-5.7,5.7c-1.5,0-2.9,0-4.4,0c-1,0-1.4-0.4-1.4-1.4c0-2.8,0-5.7,0-8.5
			c0-1.2,0.5-1.5,1.6-1.5c2.8,0,5.6,0,8.4,0c1.2,0,1.7,0.5,1.6,1.6C298.4,64.4,298.5,65.8,298.5,67.1z"/>
		<path class="st1" d="M368.7,67.2c0,1.3,0,2.6,0,4c0,1-0.3,1.6-1.4,1.6c-2.8,0-5.7,0-8.5,0c-1.1,0-1.5-0.4-1.5-1.5
			c0-2.8,0-5.6,0-8.3c0-1.2,0.5-1.6,1.7-1.6c2.7,0.1,5.4,0.1,8.1,0c1.3,0,1.8,0.5,1.7,1.8C368.7,64.5,368.7,65.8,368.7,67.2z"/>
		<path class="st1" d="M278.5,72.9c-5.6-0.1-5.6-0.1-5.6-5.7c0-1.9-0.5-4.4,0.5-5.5c0.9-1,3.5-0.4,5.3-0.4c5.6,0,5.7,0,5.6,5.5
			c0,1.9,0.4,4.4-0.5,5.5C283,73.3,280.4,72.8,278.5,72.9z"/>
		<path class="st1" d="M270.2,72.8c-3.6,0-6.9,0-10.2-0.1c-0.4,0-1.2-0.7-1.2-1.2c-0.1-3-0.1-6,0-8.9c0-0.4,0.8-1.2,1.3-1.2
			c3-0.1,6-0.1,8.9,0c0.4,0,1.1,0.7,1.1,1.2C270.3,65.9,270.2,69.2,270.2,72.8z"/>
		<path class="st1" d="M387.8,58.7c-5.7,0-5.7,0-5.7-5.7c0-1.5-0.1-2.9,0.1-4.4c0.1-0.5,0.9-1.4,1.3-1.4c2.9-0.1,5.8-0.1,8.7,0
			c0.5,0,1.2,0.8,1.2,1.3c0.1,2.9,0,5.8,0.1,8.7c0,1-0.4,1.4-1.4,1.4C390.7,58.7,389.2,58.7,387.8,58.7z"/>
		<path class="st1" d="M379.5,53c0,5.7,0,5.7-5.7,5.7c-1.5,0-2.9,0.1-4.4-0.1c-0.5-0.1-1.3-0.9-1.4-1.4c-0.1-2.8,0-5.7-0.1-8.5
			c0-1.1,0.4-1.6,1.5-1.5c2.8,0,5.7-0.1,8.5,0.1c0.5,0,1.3,0.9,1.3,1.4C379.6,50.1,379.5,51.6,379.5,53z"/>
		<path class="st1" d="M289.3,47.2c1.5,0,2.9-0.1,4.4,0.1c0.5,0.1,1.3,0.9,1.4,1.4c0.1,2.8,0,5.7,0.1,8.5c0,1.1-0.4,1.6-1.5,1.5
			c-2.8,0-5.7,0.1-8.5-0.1c-0.5,0-1.3-0.9-1.4-1.4c-0.1-2.8,0-5.7-0.1-8.5c0-1.1,0.4-1.6,1.5-1.6C286.5,47.2,287.9,47.2,289.3,47.2z
			"/>
		<path class="st1" d="M238.8,53.1c0,1.4,0.1,2.8-0.1,4.2c-0.1,0.5-0.8,1.3-1.3,1.4c-2.9,0.1-5.8,0.1-8.7,0c-0.5,0-1.2-0.8-1.3-1.3
			c-0.1-2.9-0.1-5.8,0-8.7c0-0.5,0.9-1.4,1.4-1.4c2.9-0.1,5.8-0.1,8.7,0c0.4,0,1.2,0.8,1.2,1.3C238.9,50.1,238.8,51.6,238.8,53.1z"
			/>
		<path class="st1" d="M333.7,81c0,1.4,0,2.8,0,4.2c0,1.2-0.4,1.7-1.6,1.7c-2.7-0.1-5.4-0.1-8.2,0c-1.2,0-1.7-0.3-1.7-1.6
			c0.1-2.8,0-5.6,0-8.4c0-1.1,0.4-1.6,1.5-1.5c2.8,0,5.6,0.1,8.4,0c1.3,0,1.6,0.5,1.6,1.7C333.7,78.4,333.7,79.7,333.7,81z"/>
		<path class="st1" d="M223.8,81c0-1.4-0.1-2.8,0.1-4.2c0.1-0.5,0.9-1.3,1.4-1.4c2.8-0.1,5.7-0.1,8.6,0c0.5,0,1.4,0.8,1.4,1.3
			c0.1,2.8,0,5.7,0.1,8.6c0,1.1-0.4,1.6-1.5,1.5c-2.8,0-5.6-0.1-8.4,0c-1.3,0-1.6-0.6-1.6-1.7C223.9,83.8,223.8,82.4,223.8,81z"/>
		<path class="st1" d="M337.3,53.1c0,5.6,0,5.7-5.7,5.6c-1.8,0-4.2,0.4-5.3-0.5c-0.9-0.8-0.4-3.3-0.4-5.1c0-5.9,0-5.9,5.9-5.9
			c5.5,0,5.5,0,5.5,5.5C337.3,52.8,337.3,53,337.3,53.1z"/>
		<path class="st1" d="M320.9,61.3c5.7,0,5.7,0,5.7,5.7c0,5.8,0,5.8-5.7,5.8c-1.5,0-2.9,0-4.4,0c-1,0-1.4-0.4-1.4-1.4
			c0-2.9,0-5.7,0-8.6c0-1.1,0.5-1.5,1.6-1.5C318.1,61.4,319.5,61.3,320.9,61.3z"/>
		<path class="st1" d="M402.1,96.1c0.3,0,0.7,0,1,0c5,0,5,0,4.7,5.1c-0.1,1-0.4,1.5-1.4,1.4c-2.9,0-5.9,0.3-8.7-0.1
			c-2.9-0.4-0.8-3-1.3-4.6c-0.3-1-0.1-2,1.5-1.9C399.2,96.2,400.6,96.1,402.1,96.1z"/>
		<path class="st1" d="M368.2,102.6c0-2-0.1-3.7,0.1-5.4c0-0.4,0.8-1.1,1.2-1.1c3-0.1,6-0.1,9-0.1c0.1,0,0.3,0,0.4,0
			c1.7,1.3,0.6,3.2,0.8,4.7c0.1,0.5-0.6,1.7-1,1.7C375.2,102.7,371.8,102.6,368.2,102.6z"/>
		<path class="st1" d="M393.7,95.6c-3.9,0-7.5,0-11.5,0c0-1.7-0.1-3.4,0.1-5c0-0.4,0.9-1.1,1.4-1.1c2.8-0.1,5.7-0.1,8.6,0
			c0.5,0,1.3,0.8,1.4,1.3C393.8,92.3,393.7,93.8,393.7,95.6z"/>
		<path class="st1" d="M382.2,96.6c3.9,0,7.6,0,11.5,0c0,1.7,0.1,3.3-0.1,4.8c0,0.5-0.8,1.2-1.3,1.2c-2.9,0.1-5.8,0-8.7,0.1
			c-1,0-1.4-0.5-1.4-1.5C382.2,99.7,382.2,98.3,382.2,96.6z"/>
	</g>
</g>
<g>
	<path class="st2" d="M447.3,58.8c15.9,0,31.6,0,47.4,0c0,0.5,0.1,1,0.1,1.4c0,5.3,0.1,10.6,0,15.9c-0.3,10.2-5.2,17.7-14.5,21.7
		c-9.4,4-18.2,2.2-25.7-4.6c-4.8-4.4-7.3-10-7.4-16.6c-0.1-5.5,0-11,0-16.5C447.2,59.6,447.2,59.3,447.3,58.8z"/>
	<path class="st2" d="M447.3,56.9c-0.9-8.4,0.6-16.1,6.8-22.3c4.1-4.1,9-6.4,14.8-7c0.8-0.1,1.3,0.1,1.3,1c0,1.8,0,3.7-0.1,5.5
		c0,0.4-0.5,1-0.9,1.2c-1.3,0.6-2,1.4-2,3c0.1,3.2,0.1,6.4,0,9.5c0,1.5,0.6,2.3,1.9,2.7c0.9,0.3,1.1,0.7,1.1,1.6c0,1.3,0,2.5,0,3.8
		c0,0.7-0.2,1.1-1,1.1c-7.1,0-14.2,0-21.4,0C447.6,57,447.5,56.9,447.3,56.9z"/>
	<path class="st2" d="M494.7,56.9c-0.6,0-1,0.1-1.4,0.1c-6.7,0-13.4,0-20,0c-1.1,0-1.6-0.3-1.5-1.4c0.1-0.7,0-1.3,0-2
		c-0.1-1.5-0.2-2.8,1.7-3.3c0.5-0.2,1.1-1.3,1.1-2c0.1-3.3,0-6.6,0.1-9.9c0-1.5-0.6-2.4-1.9-2.8c-0.8-0.2-1-0.7-1-1.5
		c0-1.7,0-3.5,0-5.2c0-0.9,0.3-1.2,1.2-1.1c11.7,0.9,21.4,11,21.7,22.8C494.8,52.5,494.7,54.7,494.7,56.9z"/>
</g>
<g>
	<path class="st3" d="M30.3,44.8c-0.1,1.1-0.3,2-0.4,3c-0.2,1.6-0.4,3.3-0.6,4.9c-0.1,0.9,0.2,1.7,0.7,2.3c0.6,0.7,1.5,0.8,2.2,0.2
		c0.3-0.2,0.6-0.5,0.8-0.8c1-0.9,2-0.8,2.8,0.3c1,1.6,1.2,3.4,0.3,5.1c-0.3,0.7-0.9,1.4-1.5,1.9c-0.8,0.7-1.7,0.4-2.3-0.4
		c-0.3-0.4-0.5-0.8-0.8-1.2c-0.6-0.8-1.5-0.9-2.2-0.3c-0.7,0.6-1.2,1.3-1.3,2.2c-0.3,2.4-0.6,4.8-0.9,7.2c0,0.2,0,0.4-0.1,0.7
		c-0.3,0-0.5-0.1-0.7-0.1c-2.4-0.3-4.8-0.6-7.2-0.9c-0.9-0.1-1.7,0.2-2.4,0.7c-0.7,0.6-0.8,1.5-0.2,2.2c0.2,0.3,0.5,0.6,0.8,0.8
		c0.9,1,0.9,2-0.3,2.8c-1.6,1-3.3,1.1-5,0.4c-0.7-0.3-1.4-0.8-1.9-1.4c-0.8-0.9-0.6-1.8,0.4-2.5c0.4-0.2,0.7-0.4,1.1-0.7
		c0.8-0.6,0.9-1.5,0.3-2.3c-0.6-0.7-1.2-1.2-2.2-1.3c-2.4-0.3-4.7-0.6-7.1-0.9c-0.2,0-0.5-0.1-0.7-0.1c1-8.4,2.1-16.7,3.1-25.1
		c0.2,0,0.4,0,0.6,0c2.4,0.3,4.8,0.5,7.2,0.9c0.6,0.1,1.3,0.5,1.8,1c0.6,0.6,0.5,1.3-0.2,1.8c-0.3,0.2-0.6,0.4-0.9,0.5
		c-1.3,0.8-1.5,2.2-0.5,3.4c1.4,1.6,4.1,2.3,6.3,1.4c0.6-0.2,1.2-0.6,1.6-1c0.8-0.8,0.8-1.8,0.1-2.7c-0.3-0.4-0.7-0.7-1-1
		c-0.5-0.6-0.5-1.3,0.2-1.7c0.5-0.3,1.2-0.6,1.7-0.6C24.8,44.1,27.5,44.4,30.3,44.8z"/>
	<path class="st4" d="M95,40.8c0.7,0.1,1.3,0.1,1.9,0.2c2,0.2,4.1,0.3,6.1,0.5c0.8,0.1,1.4,0.5,1.9,1c0.5,0.6,0.4,1.2-0.2,1.6
		c-0.3,0.3-0.7,0.5-1,0.7c-1.2,0.8-1.4,2.2-0.4,3.2c1.5,1.6,3.3,2.1,5.4,1.6c0.8-0.2,1.6-0.6,2.2-1c1.1-0.9,1.1-2.2,0.1-3.2
		c-0.3-0.3-0.6-0.5-0.9-0.8c-0.5-0.5-0.5-1.2,0.1-1.6c0.5-0.4,1.2-0.8,1.8-0.7c2.4,0.1,4.9,0.4,7.3,0.6c0.3,0,0.5,0,0.9,0.1
		c0,0.3,0,0.5-0.1,0.7c-0.2,2.4-0.4,4.8-0.6,7.2c-0.1,0.9,0.2,1.7,0.8,2.4c0.6,0.7,1.5,0.8,2.2,0.1c0.3-0.3,0.6-0.6,0.8-0.9
		c0.9-0.9,1.9-0.9,2.7,0.1c1.2,1.5,1.4,3.3,0.7,5.1c-0.3,0.7-0.8,1.4-1.3,2c-0.8,0.8-1.8,0.6-2.5-0.3c-0.2-0.3-0.4-0.7-0.7-1
		c-0.6-0.8-1.6-0.9-2.3-0.2c-0.6,0.6-1.1,1.3-1.1,2.2c-0.2,2.4-0.4,4.9-0.6,7.3c0,0.1,0,0.3-0.1,0.6c-0.3,0-0.5,0-0.7-0.1
		c-2.4-0.2-4.8-0.4-7.2-0.6c-0.9-0.1-1.7,0.3-2.3,0.8c-0.7,0.6-0.8,1.5-0.1,2.2c0.3,0.3,0.6,0.6,0.9,0.8c0.9,0.9,0.9,1.9-0.1,2.6
		c-1.6,1.2-3.5,1.4-5.3,0.6c-0.7-0.3-1.3-0.8-1.8-1.4c-0.7-0.8-0.5-1.7,0.3-2.3c0.4-0.3,0.8-0.5,1.1-0.8c0.8-0.6,0.9-1.6,0.2-2.3
		c-0.6-0.6-1.3-1.1-2.2-1.1c-2.4-0.2-4.8-0.4-7.1-0.6c-0.2,0-0.5,0-0.8-0.1c0-0.5,0.1-1,0.1-1.4c0.2-2.1,0.4-4.3,0.5-6.4
		c0.1-0.8,0.4-1.4,1-2c0.6-0.5,1.2-0.5,1.7,0.1c0.3,0.3,0.5,0.7,0.7,1.1c0.8,1.1,2,1.2,3,0.4c2.2-1.7,2.6-5.9,0.7-7.9
		c-0.9-1-2.1-1-3.1-0.1c-0.3,0.3-0.6,0.7-0.9,1c-0.5,0.4-1.1,0.5-1.5,0c-0.4-0.5-0.8-1.2-0.8-1.8C94.5,46.3,94.8,43.6,95,40.8z"/>
	<path class="st3" d="M125.5,10.4c-0.8,2.5-1.6,5-2.4,7.4c-0.3,0.8-0.2,1.6,0.1,2.4c0.4,1,1.4,1.3,2.3,0.8c0.3-0.2,0.6-0.4,1-0.6
		c1-0.6,2-0.4,2.5,0.7c0.8,1.6,0.6,3.3-0.3,4.8c-0.4,0.7-1.1,1.4-1.8,1.8c-1.1,0.8-2.1,0.4-2.6-0.9c-0.1-0.4-0.3-0.7-0.4-1.1
		c-0.4-0.9-1.3-1.2-2.2-0.7c-0.8,0.4-1.3,1-1.6,1.9c-0.7,2.3-1.5,4.6-2.2,6.9c-0.1,0.2-0.1,0.3-0.2,0.5c-0.2-0.1-0.5-0.1-0.7-0.2
		c-2.3-0.7-4.6-1.5-6.9-2.2c-0.9-0.3-1.7-0.1-2.4,0.2c-0.9,0.4-1.1,1.3-0.7,2.2c0.2,0.4,0.5,0.7,0.7,1c0.7,1.1,0.4,2-0.7,2.5
		c-1.8,0.8-3.5,0.6-5.1-0.5c-0.6-0.4-1.2-1.1-1.6-1.8c-0.6-1-0.2-1.9,0.9-2.3c0.4-0.2,0.9-0.3,1.3-0.5c0.8-0.4,1.1-1.2,0.7-2
		c-0.4-0.8-1-1.5-1.9-1.8c-2.4-0.8-4.7-1.5-7.1-2.3c-0.2-0.1-0.3-0.1-0.5-0.2c0-0.2,0.1-0.3,0.1-0.5c0.8-2.4,1.5-4.7,2.3-7.1
		c0.2-0.6,0.8-1.1,1.3-1.6c0.6-0.5,1.3-0.2,1.6,0.5c0.2,0.4,0.3,0.8,0.5,1.2c0.5,1.2,1.6,1.7,2.9,1.1c2.5-1.1,3.8-5.1,2.5-7.5
		c-0.7-1.2-1.9-1.5-3.1-0.8c-0.4,0.2-0.7,0.5-1.1,0.7c-0.6,0.3-1.2,0.2-1.5-0.4c-0.2-0.6-0.5-1.4-0.3-2c0.7-2.5,1.6-5,2.4-7.6
		c0-0.1,0.1-0.1,0.1-0.2c0.3,0.1,0.6,0.2,0.8,0.3c2.2,0.7,4.4,1.4,6.6,2.1c0.7,0.2,1.3,0.7,1.6,1.4C111,7,110.8,7.6,110,8
		c-0.4,0.2-0.8,0.3-1.1,0.4c-1.3,0.5-1.7,1.7-1.1,2.9c1,1.9,2.8,2.9,4.9,2.9c0.8,0,1.7-0.2,2.5-0.5c1.3-0.6,1.6-1.8,0.8-3.1
		c-0.2-0.4-0.5-0.7-0.7-1.1c-0.3-0.6-0.2-1.2,0.4-1.5c0.6-0.2,1.4-0.5,2-0.3c2.5,0.7,5,1.6,7.4,2.4
		C125.3,10.2,125.4,10.3,125.5,10.4z"/>
	<path class="st2" d="M144.1,52.1c0.7,0,1.4-0.1,2.1-0.1c1.9-0.1,3.8-0.2,5.7-0.3c0.8-0.1,1.4,0.2,2,0.7c0.7,0.5,0.7,1.2,0.1,1.8
		c-0.3,0.3-0.6,0.5-0.9,0.8c-1,1-1,2.3,0.1,3.2c1.5,1.2,3.2,1.5,5,1c0.9-0.3,1.8-0.7,2.4-1.3c1.2-1.1,1.1-2.5-0.3-3.4
		c-0.3-0.2-0.6-0.4-0.9-0.7c-0.5-0.5-0.6-1.1-0.1-1.5c0.5-0.4,1.1-0.9,1.7-1c2.5-0.2,5-0.3,7.5-0.5c0.2,0,0.4,0,0.6,0
		c0.5,8.4,1,16.8,1.5,25.3c-0.2,0-0.4,0-0.7,0c-2.4,0.1-4.8,0.3-7.2,0.4c-0.9,0-1.6,0.5-2.2,1.1c-0.7,0.7-0.6,1.6,0.1,2.3
		c0.3,0.2,0.6,0.5,0.9,0.7c1.1,0.8,1.2,1.9,0.2,2.8c-1.3,1.2-2.9,1.7-4.6,1.3c-0.8-0.2-1.7-0.6-2.4-1.1c-1-0.7-0.9-1.8-0.1-2.6
		c0.3-0.3,0.7-0.6,0.9-0.9c0.6-0.7,0.6-1.6-0.1-2.2c-0.7-0.6-1.4-0.9-2.3-0.9c-2.4,0.2-4.9,0.3-7.3,0.4c-0.2,0-0.3,0-0.6,0
		c0-0.2-0.1-0.4-0.1-0.6c-0.1-2.4-0.3-4.9-0.4-7.3c0-0.6,0.3-1.4,0.7-1.9c0.4-0.7,1.2-0.7,1.8-0.1c0.3,0.3,0.5,0.6,0.8,0.9
		c1,1,2.2,1,3.1,0c1.4-1.6,1.6-3.4,1.1-5.4c-0.3-0.9-0.7-1.8-1.5-2.4c-1.1-0.9-2.3-0.8-3.1,0.3c-0.3,0.4-0.5,0.8-0.8,1.1
		c-0.4,0.5-1.1,0.6-1.5,0.2c-0.5-0.5-1-1.1-1.1-1.8c-0.3-2.6-0.4-5.2-0.5-7.9C144.1,52.3,144.1,52.3,144.1,52.1z"/>
	<path class="st0" d="M54.2,86c-1.8,2-3.5,3.9-5.3,5.8c-0.6,0.6-0.8,1.4-0.8,2.2c0,1.1,0.7,1.7,1.8,1.6c0.4,0,0.7-0.1,1.1-0.2
		c1.3-0.2,2.1,0.4,2.1,1.7c0,1.8-0.8,3.3-2.3,4.3c-0.7,0.5-1.6,0.8-2.5,0.9c-1.1,0.2-1.8-0.6-1.8-1.8c0-0.5,0.1-0.9,0.1-1.4
		c0-0.9-0.6-1.5-1.5-1.5c-0.9,0-1.7,0.3-2.3,1c-1.6,1.8-3.3,3.6-4.9,5.4c-0.1,0.2-0.3,0.3-0.5,0.5C31,99,24.8,93.4,18.5,87.8
		c0.2-0.2,0.4-0.4,0.6-0.6c1.6-1.8,3.2-3.5,4.7-5.3c0.5-0.6,1.2-0.8,1.9-0.9c0.7,0,1.2,0.4,1.2,1.1c0,0.4,0,0.8-0.1,1.2
		c-0.1,1.6,0.9,2.5,2.5,2.3c1.9-0.2,3.4-1.2,4.2-2.9c0.4-0.8,0.7-1.7,0.7-2.6c0.1-1.6-1-2.5-2.6-2.2C31.4,77.9,31,78,30.6,78
		c-0.6,0-1.1-0.3-1.1-0.9c0-0.7,0.1-1.5,0.5-2c1.7-2,3.5-4,5.3-5.9c0,0,0.1-0.1,0.2-0.1c0.1,0,0.2,0.1,0.2,0.1
		c1.9,1.7,3.9,3.4,5.8,5.2c0.4,0.4,0.6,1.2,0.8,1.8c0.1,0.7-0.4,1.2-1.1,1.2c-0.4,0-0.9-0.1-1.3-0.1c-1.4,0-2.3,0.8-2.2,2.2
		c0.2,2.3,1.4,3.9,3.5,4.8c0.7,0.3,1.6,0.5,2.4,0.4c1.3,0,2-1.1,1.9-2.4c-0.1-0.4-0.2-0.9-0.2-1.3c0-0.7,0.3-1.2,1-1.2
		c0.7,0,1.5,0.1,2,0.6c2,1.7,3.9,3.5,5.8,5.2C54.1,85.8,54.1,85.8,54.2,86z"/>
	<path class="st0" d="M101.3,107.1c0-0.2-0.1-0.3-0.1-0.4c-0.2-2.5-0.5-5-0.6-7.5c0-0.4,0.1-0.8,0.2-1.1c0.6-1.5,1.6-1.7,2.6-0.5
		c1.7,2,3.5,1,4.2-0.7c0.9-2.1,0.7-4.2-0.6-6c-0.4-0.5-1-0.9-1.6-1.2c-0.8-0.3-1.6,0-2.1,0.7c-0.3,0.4-0.5,0.8-0.8,1.2
		c-0.5,0.6-1.1,0.7-1.6,0.2c-0.4-0.5-0.9-1.1-1-1.7c-0.3-2.6-0.5-5.3-0.7-7.9c0-0.1,0-0.1,0-0.2c0.2,0,0.4-0.1,0.5-0.1
		c2.4-0.2,4.8-0.4,7.3-0.6c0.8-0.1,1.4,0.2,2,0.7c0.6,0.5,0.7,1.1,0.1,1.7c-0.3,0.3-0.6,0.5-0.8,0.8c-1,1-1,2.3,0.2,3.2
		c1.6,1.2,3.5,1.5,5.4,0.8c0.8-0.3,1.5-0.7,2.1-1.3c1.2-1.1,1-2.5-0.3-3.4c-0.3-0.2-0.7-0.4-1-0.7c-0.5-0.4-0.7-1.1-0.2-1.5
		c0.5-0.5,1.1-1,1.7-1.1c2.6-0.3,5.3-0.5,8-0.7c0,0,0.1,0,0.2,0.1c0,0.2,0,0.4,0.1,0.6c0.2,2.4,0.4,4.8,0.6,7.1
		c0.1,0.9,0.5,1.6,1.1,2.1c0.8,0.7,1.7,0.6,2.4-0.2c0.2-0.3,0.4-0.6,0.6-0.9c0.7-1.1,1.8-1.2,2.7-0.3c1.3,1.2,1.8,2.8,1.5,4.5
		c-0.1,0.8-0.5,1.7-0.9,2.4c-0.7,1.1-1.8,1.1-2.7,0.2c-0.3-0.3-0.5-0.6-0.8-0.8c-0.7-0.7-1.6-0.6-2.3,0.2c-0.5,0.7-0.8,1.4-0.8,2.3
		c0.2,2.4,0.4,4.8,0.6,7.2c0,0.2,0,0.4,0.1,0.7C118,105.6,109.7,106.4,101.3,107.1z"/>
	<path class="st3" d="M60.7,95.6c0.5-2.7,1-5.4,1.6-8c0.1-0.4,0.3-0.7,0.6-1c0.9-1.1,1.8-1,2.4,0.3c0.1,0.1,0.1,0.3,0.2,0.4
		c0.8,1.6,2.3,1.9,3.7,0.7c1.8-1.6,2.4-4.5,1.4-6.7c-0.7-1.5-2.3-2.3-3.8-0.8c-0.5,0.5-1,1.1-1.8,0.7c-0.6-0.2-1.2-1.4-1-2.2
		c0.5-2.7,1-5.4,1.6-8.1c0.2,0,0.4,0.1,0.6,0.1c2.4,0.5,4.7,0.9,7.1,1.4c0.6,0.1,1.2,0.6,1.7,1c0.7,0.7,0.5,1.4-0.3,1.9
		c-0.3,0.2-0.6,0.3-0.9,0.4c-1.4,0.8-1.7,2.1-0.7,3.4c1.2,1.5,2.9,2.2,4.8,2c0.9-0.1,1.8-0.4,2.6-0.8c1.2-0.7,1.4-2,0.5-3.1
		c-0.3-0.3-0.6-0.6-0.8-0.9c-0.4-0.6-0.4-1.3,0.3-1.6c0.6-0.3,1.3-0.6,1.9-0.5c2.6,0.4,5.2,1,7.8,1.5c0.1,0,0.1,0.1,0.2,0.1
		c0,0.2-0.1,0.5-0.1,0.7c-0.4,2.3-0.9,4.6-1.3,7c-0.2,0.9,0,1.7,0.5,2.4c0.5,0.9,1.5,1,2.3,0.4c0.3-0.2,0.6-0.5,0.9-0.8
		c1-0.8,2-0.7,2.7,0.4c1,1.7,1,3.4,0.1,5.1c-0.4,0.7-1,1.4-1.6,1.9c-0.9,0.7-1.8,0.4-2.3-0.6c-0.2-0.4-0.4-0.8-0.6-1.1
		c-0.6-0.9-1.5-1.1-2.3-0.5c-0.7,0.5-1.2,1.2-1.3,2.1c-0.4,2.3-0.9,4.6-1.3,7c0,0.2-0.1,0.5-0.1,0.7C77.3,98.8,69,97.2,60.7,95.6z"
		/>
	<path class="st0" d="M142.6,26.4c0.7,0,1.3-0.1,1.8-0.1c2-0.1,4-0.2,6-0.4c0.8-0.1,1.5,0.2,2.1,0.7c0.6,0.5,0.6,1.1,0.1,1.7
		c-0.3,0.3-0.6,0.5-0.9,0.8c-1.1,1-1.1,2.4,0.1,3.3c1.8,1.4,3.8,1.6,5.9,0.6c0.7-0.3,1.4-0.8,1.9-1.4c0.8-0.9,0.6-2.1-0.4-2.8
		c-0.4-0.3-0.8-0.5-1.1-0.8c-0.6-0.5-0.6-1.1-0.1-1.6c0.4-0.4,1-0.7,1.6-1c0.1-0.1,0.3,0,0.5,0c2.6-0.2,5.1-0.3,7.7-0.5
		c0.5,8.4,1,16.8,1.5,25.2c-0.2,0-0.5,0-0.7,0c-2.4,0.1-4.8,0.3-7.1,0.4c-0.9,0-1.6,0.5-2.2,1.1c-0.7,0.7-0.6,1.7,0.2,2.3
		c0.3,0.3,0.7,0.5,1,0.8c0.9,0.7,1,1.5,0.3,2.4c-1.6,2-5.6,2.3-7.3,0.4c-0.8-0.8-0.8-1.7,0-2.4c0.3-0.3,0.7-0.6,1-0.9
		c0.7-0.7,0.7-1.7-0.1-2.3c-0.7-0.6-1.4-0.9-2.4-0.8c-2.4,0.2-4.7,0.3-7.1,0.4c-0.2,0-0.5,0-0.8,0c0-0.4,0-0.7-0.1-0.9
		c-0.1-2.3-0.3-4.6-0.4-7c0-0.8,0.3-1.5,0.8-2c0.5-0.5,1.1-0.5,1.6-0.1c0.3,0.3,0.6,0.7,0.9,1c0.9,0.9,2.1,0.9,3,0
		c2-1.9,1.8-6.2-0.5-8c-1-0.8-2.2-0.7-3,0.4c-0.3,0.4-0.5,0.8-0.8,1.1c-0.4,0.5-1,0.6-1.5,0.1c-0.4-0.5-1-1.1-1-1.7
		c-0.3-2.5-0.3-5.1-0.5-7.6C142.6,26.9,142.6,26.7,142.6,26.4z"/>
	<path class="st5" d="M145.4,77.9c0.8-0.1,1.5-0.1,2.3-0.2c1.9-0.1,3.7-0.3,5.6-0.4c0.8-0.1,1.4,0.2,2,0.7c0.7,0.5,0.7,1.2,0.1,1.8
		c-0.3,0.3-0.5,0.5-0.8,0.7c-1.1,1-1.1,2.4,0.1,3.3c1.6,1.2,3.4,1.5,5.3,0.8c0.8-0.3,1.7-0.8,2.3-1.5c1-1,0.8-2.3-0.4-3.2
		c-0.3-0.2-0.7-0.4-1-0.7c-0.6-0.5-0.7-1.1-0.1-1.6c0.5-0.4,1-0.9,1.6-1c2.7-0.3,5.4-0.4,8.2-0.6c0.6,8.4,1.2,16.8,1.8,25.2
		c-8.4,0.6-16.7,1.2-25.2,1.8c0-0.2,0-0.4,0-0.6c-0.2-2.4-0.3-4.8-0.5-7.2c-0.1-0.8,0.2-1.4,0.7-2c0.5-0.6,1.1-0.7,1.7-0.1
		c0.3,0.3,0.6,0.6,0.9,0.9c0.9,0.9,2.2,1,3.1-0.1c1.3-1.6,1.7-3.4,1-5.3c-0.3-0.8-0.8-1.7-1.4-2.3c-1-1.1-2.4-0.9-3.3,0.3
		c-0.2,0.3-0.4,0.7-0.7,1c-0.4,0.5-1,0.6-1.5,0.1c-0.5-0.5-1-1.1-1.1-1.7c-0.3-2.5-0.4-5-0.6-7.5C145.4,78.4,145.4,78.2,145.4,77.9z
		"/>
	<path class="st6" d="M43.8,28.2c0.3,0,0.7,0,1.1,0c2.3-0.1,4.5-0.2,6.8-0.2c0.8,0,1.4,0.3,1.9,0.7c0.6,0.5,0.7,1.2,0.1,1.8
		c-0.3,0.3-0.6,0.5-0.9,0.8c-1,0.9-1,2.1-0.1,3.1c1.5,1.4,3.2,1.7,5.2,1.3c1-0.2,1.9-0.6,2.6-1.4c1.1-1.1,1-2.4-0.2-3.3
		c-0.3-0.2-0.7-0.5-1-0.7c-0.5-0.4-0.6-1.1-0.1-1.5c0.5-0.4,1.1-1,1.7-1c2.7-0.2,5.3-0.2,8-0.3c0.1,0,0.1,0,0.3,0.1
		c0,0.2,0,0.5,0,0.7c0.1,2.4,0.2,4.7,0.2,7.1c0,0.9,0.4,1.6,1,2.2c0.7,0.7,1.6,0.6,2.3-0.1c0.3-0.3,0.5-0.7,0.7-1
		c0.8-1,1.8-1.1,2.6-0.2c1.2,1.3,1.6,2.8,1.4,4.6c-0.1,0.9-0.5,1.8-1.2,2.5c-0.8,0.9-1.8,0.8-2.6,0c-0.3-0.3-0.5-0.7-0.9-1
		c-0.7-0.7-1.6-0.6-2.2,0.1c-0.6,0.7-0.9,1.4-0.9,2.3c0.1,2.4,0.2,4.8,0.3,7.2c0,0.2,0,0.5,0,0.8c-0.3,0-0.5,0-0.8,0
		c-2.4,0.1-4.8,0.2-7.2,0.2c-0.9,0-1.6,0.4-2.2,1c-0.7,0.7-0.7,1.7,0.1,2.3c0.3,0.3,0.6,0.5,0.9,0.7c1,0.8,1.1,1.8,0.2,2.7
		c-1.3,1.2-2.9,1.7-4.6,1.3c-0.8-0.2-1.7-0.6-2.4-1.1c-1-0.8-0.9-1.8,0-2.6c0.3-0.3,0.7-0.5,1-0.9c0.6-0.7,0.6-1.5,0-2.1
		c-0.6-0.6-1.4-1-2.3-1c-2.4,0.1-4.8,0.2-7.2,0.3c-0.2,0-0.5,0-0.7,0c0-0.2-0.1-0.4-0.1-0.6c-0.1-2.5-0.2-5-0.3-7.5
		c0-0.4,0.1-0.8,0.3-1.2c0.6-1.4,1.6-1.5,2.5-0.3c0.2,0.2,0.3,0.4,0.5,0.5c0.9,1,2.1,1.1,3.1,0.1c1.4-1.4,1.7-3.2,1.3-5.1
		c-0.2-1-0.6-2-1.4-2.7c-1.1-1-2.4-0.9-3.3,0.3c-0.3,0.3-0.5,0.7-0.7,1c-0.5,0.5-1.1,0.6-1.5,0.1c-0.4-0.5-0.9-1.1-1-1.7
		c-0.2-2.6-0.2-5.3-0.3-7.9C43.8,28.4,43.8,28.4,43.8,28.2z"/>
</g>
</svg>
